<svg xmlns="http://www.w3.org/2000/svg" viewBox="0 0 64 64" fill="none">
  <g transform="translate(32 32)">
    <g stroke="#14110F" stroke-width="3.2" stroke-linecap="round" opacity="0.96">
      <path d="M-22 -1.5C-16 -5 -9 -5 -4 -1.5"/>
      <path d="M-22 1.5C-16 5 -9 5 -4 1.5"/>
      <path d="M22 -1.5C16 -5 9 -5 4 -1.5"/>
      <path d="M22 1.5C16 5 9 5 4 1.5"/>
      <path d="M-1.5 -22C-5 -16 -5 -9 -1.5 -4"/>
      <path d="M1.5 -22C5 -16 5 -9 1.5 -4"/>
      <path d="M-1.5 22C-5 16 -5 9 -1.5 4"/>
      <path d="M1.5 22C5 16 5 9 1.5 4"/>
    </g>
    <rect x="-3.4" y="-3.4" width="6.8" height="6.8" rx="1.4" transform="rotate(45)" fill="#14110F"/>
  </g>
</svg>
