<svg xmlns="http://www.w3.org/2000/svg" viewBox="0 0 760 120" fill="none">
  <defs>
    <linearGradient id="markContour" x1="72" y1="56" x2="168" y2="182" gradientUnits="userSpaceOnUse">
      <stop stop-color="#A58F78"/>
      <stop offset="1" stop-color="#766150"/>
    </linearGradient>
    <linearGradient id="markAxis" x1="82" y1="80" x2="158" y2="158" gradientUnits="userSpaceOnUse">
      <stop stop-color="#37312D"/>
      <stop offset="1" stop-color="#161311"/>
    </linearGradient>
    <linearGradient id="markAccent" x1="109" y1="109" x2="131" y2="131" gradientUnits="userSpaceOnUse">
      <stop stop-color="#A96F5D"/>
      <stop offset="1" stop-color="#6B4338"/>
    </linearGradient>
    <linearGradient id="markCore" x1="116" y1="116" x2="124" y2="124" gradientUnits="userSpaceOnUse">
      <stop stop-color="#574E47"/>
      <stop offset="1" stop-color="#100E0D"/>
    </linearGradient>
    <style>
      .cn {
        fill: #171311;
        font-family: "Songti SC", "Noto Serif CJK SC", serif;
        font-size: 30px;
        letter-spacing: 0.12em;
      }
      .en {
        fill: #8B755F;
        font-family: "Helvetica Neue", Arial, sans-serif;
        font-size: 11.5px;
        letter-spacing: 0.19em;
      }
    </style>
  </defs>

  <g transform="translate(8 19) scale(0.22)">
    <g transform="translate(120 120)">
      <g stroke="url(#markContour)" stroke-width="4.35" stroke-linecap="round" opacity="0.99">
        <path d="M-78 -5C-58 -16 -35 -17 -16 -5"/>
        <path d="M-78 5C-58 16 -35 17 -16 5"/>
        <path d="M78 -5C58 -16 35 -17 16 -5"/>
        <path d="M78 5C58 16 35 17 16 5"/>
        <path d="M-5 -78C-16 -58 -17 -35 -5 -16"/>
        <path d="M5 -78C16 -58 17 -35 5 -16"/>
        <path d="M-5 78C-16 58 -17 35 -5 16"/>
        <path d="M5 78C16 58 17 35 5 16"/>
      </g>
      <g stroke="url(#markAxis)" stroke-width="3.5" stroke-linecap="round" opacity="0.96">
        <path d="M-48 -50L-22 -24"/>
        <path d="M22 24L48 50"/>
        <path d="M48 -50L22 -24"/>
        <path d="M-22 24L-48 50"/>
      </g>
      <g stroke="url(#markAccent)" stroke-width="1.95" stroke-linecap="round" stroke-linejoin="round" opacity="0.97">
        <path d="M-8 -4C-7 -7 -5 -9 -2 -10"/>
        <path d="M4 -8C7 -7 9 -5 10 -2"/>
        <path d="M8 4C7 7 5 9 2 10"/>
        <path d="M-4 8C-7 7 -9 5 -10 2"/>
      </g>
    </g>
    <rect x="116.2" y="116.2" width="7.6" height="7.6" rx="1.45" transform="rotate(45 120 120)" fill="url(#markCore)"/>
  </g>

  <text class="cn" x="92" y="44">竹瑾居</text>
  <text class="en" x="92" y="76">HIMALAYAN ART AND ASIAN ANTIQUITIES</text>
</svg>
