<svg xmlns="http://www.w3.org/2000/svg" viewBox="0 0 200 200" fill="none">
  <rect x="20" y="20" width="160" height="160" stroke="#171311" stroke-width="4"/>
  <path fill="#171311" d="M44 44h110l-8 10H44z"/>
  <path fill="#171311" d="M52 146h104v10H44z"/>
  <path fill="#8f281d" d="M136 54h14L84 134H70z"/>
  <path fill="#171311" d="M90 60h12v65c0 7-2 13-6 18-5 6-12 9-22 9H62v-10h10c7 0 12-1 15-4 3-3 4-7 4-13V60z"/>
  <path fill="#171311" d="M120 60h12v65c0 7-2 13-6 18-5 6-12 9-22 9H92v-10h10c7 0 12-1 15-4 3-3 4-7 4-13V60z"/>
</svg>
