<svg xmlns="http://www.w3.org/2000/svg" viewBox="0 0 240 240" fill="none">
  <defs>
    <linearGradient id="markContour" x1="72" y1="56" x2="168" y2="182" gradientUnits="userSpaceOnUse">
      <stop stop-color="#E7D9C8"/>
      <stop offset="1" stop-color="#C9B59C"/>
    </linearGradient>
    <linearGradient id="markAxis" x1="82" y1="80" x2="158" y2="158" gradientUnits="userSpaceOnUse">
      <stop stop-color="#F6EEE5"/>
      <stop offset="1" stop-color="#DAC7AD"/>
    </linearGradient>
    <linearGradient id="markAccent" x1="109" y1="109" x2="131" y2="131" gradientUnits="userSpaceOnUse">
      <stop stop-color="#D7A48F"/>
      <stop offset="1" stop-color="#BF7C69"/>
    </linearGradient>
    <linearGradient id="markCore" x1="116" y1="116" x2="124" y2="124" gradientUnits="userSpaceOnUse">
      <stop stop-color="#FBF1E5"/>
      <stop offset="1" stop-color="#DFC2A2"/>
    </linearGradient>
  </defs>

  <g transform="translate(120 120)">
    <g stroke="url(#markContour)" stroke-width="4.35" stroke-linecap="round" opacity="0.99">
      <path d="M-78 -5C-58 -16 -35 -17 -16 -5"/>
      <path d="M-78 5C-58 16 -35 17 -16 5"/>
      <path d="M78 -5C58 -16 35 -17 16 -5"/>
      <path d="M78 5C58 16 35 17 16 5"/>
      <path d="M-5 -78C-16 -58 -17 -35 -5 -16"/>
      <path d="M5 -78C16 -58 17 -35 5 -16"/>
      <path d="M-5 78C-16 58 -17 35 -5 16"/>
      <path d="M5 78C16 58 17 35 5 16"/>
    </g>
    <g stroke="url(#markAxis)" stroke-width="3.5" stroke-linecap="round" opacity="0.98">
      <path d="M-48 -50L-22 -24"/>
      <path d="M22 24L48 50"/>
      <path d="M48 -50L22 -24"/>
      <path d="M-22 24L-48 50"/>
    </g>
    <g stroke="url(#markAccent)" stroke-width="1.95" stroke-linecap="round" stroke-linejoin="round" opacity="0.98">
      <path d="M-8 -4C-7 -7 -5 -9 -2 -10"/>
      <path d="M4 -8C7 -7 9 -5 10 -2"/>
      <path d="M8 4C7 7 5 9 2 10"/>
      <path d="M-4 8C-7 7 -9 5 -10 2"/>
    </g>
  </g>

  <rect
    x="116.2"
    y="116.2"
    width="7.6"
    height="7.6"
    rx="1.45"
    transform="rotate(45 120 120)"
    fill="url(#markCore)"
  />
</svg>
